<svg id="Layer_1" data-name="Layer 1" xmlns="http://www.w3.org/2000/svg" viewBox="0 0 3136.91 2179.2"><defs><style>.cls-1{fill:#00aeef;}.cls-2{fill:none;}.cls-3{fill:#1c75bc;}.cls-4{fill:#b8b8b8;}.cls-5{fill:#e9e9e9;}.cls-6{fill:#808285;}.cls-7{fill:#6d6e71;}</style></defs><polygon class="cls-1" points="625.78 549.93 1569.1 0 1941.52 217.91 1379.13 548.17 1940.72 880.04 1567.56 1093.57 625.78 549.93"/><path class="cls-2" d="M2375.39,1183.65" transform="translate(-433.87 -965.74)"/><polygon class="cls-3" points="1941.52 217.91 1941.58 442.15 1765.95 545.34 1765.95 776.76 1379.13 548.17 1941.52 217.91"/><polygon class="cls-4" points="1940.72 880.04 1765.95 776.76 1765.95 545.34 2136.61 762.38 2136.61 1415.49 1567.95 1747.86 625.78 1205.93 818.69 1089.15 1567.95 1516.15 1941.58 1304.6 1940.72 880.04"/><polygon class="cls-5" points="2136.61 762.38 2511.13 545.34 2136.61 324.6 1765.95 545.34 2136.61 762.38"/><polygon class="cls-6" points="2136.61 762.38 2511.13 545.34 2511.13 1628.45 1567.95 2171.26 625.78 1626.08 625.78 1205.93 1567.95 1747.86 2136.61 1415.49 2136.61 762.38"/><polygon class="cls-3" points="1940.72 880.04 1941.58 1304.6 1567.95 1516.15 625.78 976.6 625.78 549.93 1567.56 1093.57 1940.72 880.04"/><path class="cls-7" d="M433.87,1979.18c192.34,0,219.43-106.25,219.43-201.6,0-76.28-10.84-152.56-21.67-228.84S610,1398.9,610,1322.62c0-250.64,162.54-356.88,392.81-356.88h56.89v149.83h-48.76c-159.83,0-214,87.18-214,234.29,0,62.66,8.12,128,19,193.43,10.83,68.1,19,133.49,19,207,2.71,174.36-73.14,261.54-195,294.23V2050c121.91,30,197.76,122.59,195,296.95,0,73.55-8.13,141.66-19,207-10.84,68.11-19,130.77-19,196.15,0,152.56,62.3,237,214,237h48.76V3137h-56.89C777.91,3137,610,3038.93,610,2763.77c0-73.55,10.84-149.83,21.68-223.39s21.67-147.11,21.67-220.67c0-84.45-27.09-201.6-219.43-201.6Z" transform="translate(-433.87 -965.74)"/><path class="cls-7" d="M3570.78,2126.05c-192.34,0-219.43,117.15-219.43,201.6,0,73.55,10.84,147.11,21.67,220.67s21.67,149.83,21.67,223.39c0,275.15-168,373.23-392.8,373.23H2945V2995.1h48.76c151.71,0,214-84.45,214-237,0-65.39-8.12-128-19-196.15-10.84-65.38-19-133.49-19-207.05-2.71-174.35,73.14-267,195.05-296.95v-5.44c-121.91-32.7-197.76-119.87-195.05-294.23,0-73.56,8.12-138.94,19-207,10.84-65.38,19-130.76,19-193.42,0-147.11-54.18-234.29-214-234.29H2945V973.67h56.89c230.26,0,392.8,106.25,392.8,356.89,0,76.28-10.83,149.83-21.67,226.11s-21.67,152.56-21.67,228.84c0,95.36,27.09,201.6,219.43,201.6Z" transform="translate(-433.87 -965.74)"/></svg>